<svg version="1" xmlns="http://www.w3.org/2000/svg" width="933.333" height="933.333" viewBox="0 0 700.000000 700.000000"><path d="M0 350v350h700V0H0v350zm488.6-200.9c24.8 3.4 46 19 56.5 41.4 7.3 15.7 6.9 6.7 6.9 159.8 0 134.6 0 137.5-2 145.3-7.7 30-31.7 51.4-62.2 55.4-5.7.8-49.6 1-142.8.8l-134.5-.3-7.5-2.3c-13.2-4.1-22.6-9.7-32-19.2-9.7-9.7-13.9-16.3-18.4-28.7l-3.1-8.8v-285l3.1-8.8c4.2-11.5 8.4-18.5 16.8-27.4 11.3-12 27-20.2 43-22.3 9.7-1.2 267.1-1.2 276.2.1z"/><path d="M213.5 174.6c-24.2 5.9-44 26.8-49 51.9-1.4 7.1-1.5 22-1.3 132.5.3 117.8.4 124.8 2.2 130 7.1 21.3 21.8 36.9 42.4 44.9l6.7 2.6h262l6.7-2.6c16.1-6.3 29.4-17.7 36.5-31.5 8.5-16.3 7.7-3.4 8.1-143.4.2-110.5.1-125.4-1.3-132.5-5-25.3-24.9-46.2-49.5-51.9-9.5-2.3-254.2-2.2-263.5 0zM367.7 299c14.4 33.3 26.3 60.6 26.3 60.7 0 .2-5.5.3-12.2.3h-12.3l-6.7-16.3-6.6-16.2-20.5-.5-20.4-.5 3.6-9.5 3.7-9.5 12.2-.3c6.7-.1 12.2-.6 12.2-.9 0-2.1-18.4-44.2-19.1-43.6-.4.4-9.5 22.4-20.2 48.8l-19.5 48-11.7.3c-10.9.2-11.7.1-11.1-1.5.4-1 12-28.5 25.9-61.1l25.1-59.3 12.5.3 12.5.3 26.3 60.5zm62.3 0v61h-23V238h23v61zm37.5-39.8c.4 1.8 1.1 5 1.6 7l1 3.8H493v18h-20v48.2l2.9 2.9c2.7 2.7 3.5 2.9 10 2.9h7.1v18h-12.7c-7.1 0-14.6-.5-16.8-1.1-5.4-1.5-10.9-7.4-12.4-13.2-.7-3.1-1.1-18.4-1.1-47.1V256h16.8l.7 3.2z"/></svg>