<?xml version="1.0" encoding="utf-8"?>
<!DOCTYPE svg PUBLIC "-//W3C//DTD SVG 1.1//EN" "http://www.w3.org/Graphics/SVG/1.1/DTD/svg11.dtd">
<svg version="1.1" id="Layer_1" xmlns="http://www.w3.org/2000/svg" xmlns:xlink="http://www.w3.org/1999/xlink" x="0px" y="0px"
	 width="110px" height="110px" viewBox="0.786 0.696 110 110" enable-background="new 0.786 0.696 110 110" xml:space="preserve">
<rect x="0.786" y="0.696" fill="#234473" width="110" height="110"/>
<g>
	<path fill="#FFFFFF" d="M35.736,24.002c-6.399,0-11.551,5.152-11.551,11.551v40.288c0,6.398,5.15,11.55,11.551,11.55h40.287
		c6.397,0,11.55-5.15,11.55-11.55V35.552c0-6.397-5.151-11.551-11.55-11.551L35.736,24.002L35.736,24.002z M36.917,27.825h36.325
		c5.821,0,10.507,4.686,10.507,10.507v36.325c0,5.819-4.686,10.507-10.507,10.507H36.917c-5.821,0-10.507-4.688-10.507-10.507
		V38.333C26.41,32.51,31.096,27.825,36.917,27.825z"/>
	<g>
		<path fill="#FFFFFF" d="M46.025,57.291h-3.663l8.174-19.256h3.837l8.351,19.256h-3.839l-2.193-5.251h-6.396l1.227-3.097h3.878
			l-3.03-7.231L46.025,57.291z"/>
		<path fill="#FFFFFF" d="M68.311,38.035v19.256h-3.568V38.035H68.311z"/>
		<path fill="#FFFFFF" d="M71.475,40.864h2.639l0.539,2.289h3.555v2.828h-3.164v6.504c0,1.317,0.57,1.979,1.71,1.979h1.454v2.828
			H75.03c-2.37,0-3.555-1.27-3.555-3.811V40.864z"/>
	</g>
</g>
</svg>
