<?xml version="1.0" encoding="utf-8"?>
<!-- Generator: Adobe Illustrator 16.0.0, SVG Export Plug-In . SVG Version: 6.00 Build 0)  -->
<!DOCTYPE svg PUBLIC "-//W3C//DTD SVG 1.1//EN" "http://www.w3.org/Graphics/SVG/1.1/DTD/svg11.dtd">
<svg version="1.1" id="Layer_1" xmlns="http://www.w3.org/2000/svg" xmlns:xlink="http://www.w3.org/1999/xlink" x="0px" y="0px"
	 width="601.945px" height="197.139px" viewBox="0 0 601.945 197.139" enable-background="new 0 0 601.945 197.139"
	 xml:space="preserve">
<rect x="0" y="0" fill="#234473" width="601.945" height="197.139"/>
<g>
	<g>
		<g>
			<path fill="#FFFFFF" d="M166.616,63.389v5.929h-10.568v30.934h-6.831V69.318h-10.568v-5.929H166.616z"/>
		</g>
		<g>
			<path fill="#FFFFFF" d="M170.874,100.25V63.389h6.831v13.25c2.131-2.302,4.854-3.454,8.171-3.454
				c6.41,0,9.615,3.334,9.615,10.002v17.064h-6.831V83.186c0-2.99-1.487-4.484-4.459-4.484c-2.217,0-4.382,0.885-6.496,2.654v18.896
				L170.874,100.25L170.874,100.25z"/>
		</g>
		<g>
			<path fill="#FFFFFF" d="M214.415,73.184c8.214,0,12.322,4.193,12.322,12.58c0,1.117-0.078,2.234-0.232,3.351h-17.967
				c0,3.815,2.801,5.724,8.404,5.724c2.731,0,5.464-0.258,8.197-0.773v5.413c-2.39,0.517-5.293,0.773-8.712,0.773
				c-9.813,0-14.72-4.614-14.72-13.842C201.706,77.592,205.942,73.184,214.415,73.184z M208.537,84.372h11.548v-0.206
				c0-3.746-1.891-5.62-5.671-5.62C210.806,78.546,208.847,80.488,208.537,84.372z"/>
		</g>
		<g>
			<path fill="#F18A21" d="M236.713,100.316h-7.011l15.647-36.861h7.346l15.982,36.861h-7.347l-4.202-10.053h-12.245l2.347-5.929
				h7.424l-5.8-13.842L236.713,100.316z"/>
			<path fill="#F18A21" d="M280.378,63.455v36.861h-6.831V63.455H280.378z"/>
			<path fill="#F18A21" d="M287.439,68.868h5.052l1.031,4.382h6.805v5.414h-6.058v12.449c0,2.526,1.091,3.79,3.273,3.79h2.784v5.413
				h-6.083c-4.537,0-6.805-2.432-6.805-7.295V68.868L287.439,68.868z"/>
			<path fill="#F18A21" d="M317.391,73.25c8.213,0,12.32,4.192,12.32,12.58c0,1.116-0.076,2.233-0.23,3.351h-17.967
				c0,3.815,2.801,5.723,8.401,5.723c2.732,0,5.466-0.258,8.197-0.772v5.413c-2.389,0.516-5.293,0.772-8.713,0.772
				c-9.813,0-14.718-4.613-14.718-13.842C304.682,77.658,308.919,73.25,317.391,73.25z M311.514,84.438h11.547v-0.206
				c0-3.746-1.891-5.62-5.67-5.62C313.781,78.612,311.822,80.554,311.514,84.438z"/>
			<path fill="#F18A21" d="M335.844,100.316V73.25h5.285l0.85,3.454c2.371-2.303,4.881-3.454,7.527-3.454v5.517
				c-2.543,0-4.82,1.057-6.832,3.17v18.379H335.844z"/>
			<path fill="#F18A21" d="M354.378,100.316V73.25h5.282l0.853,3.97c2.594-2.646,5.551-3.97,8.867-3.97
				c6.409,0,9.614,3.334,9.614,10.002v17.063h-6.832V83.252c0-2.99-1.485-4.485-4.459-4.485c-2.217,0-4.383,0.885-6.496,2.655
				v18.895L354.378,100.316L354.378,100.316z"/>
			<path fill="#F18A21" d="M385.152,91.887c0-5.378,3.918-8.068,11.754-8.068c1.838,0,3.679,0.172,5.517,0.517v-2.037
				c0-2.423-1.744-3.634-5.232-3.634c-2.955,0-6.238,0.43-9.848,1.289V74.54c3.608-0.859,6.893-1.289,9.848-1.289
				c8.043,0,12.064,2.974,12.064,8.919v18.146h-3.972l-2.422-2.423c-2.354,1.615-4.949,2.423-7.785,2.423
				C388.46,100.316,385.152,97.507,385.152,91.887z M396.906,88.459c-3.283,0-4.924,1.117-4.924,3.351
				c0,2.406,1.375,3.609,4.125,3.609c2.268,0,4.373-0.705,6.314-2.114v-4.331C400.703,88.631,398.865,88.459,396.906,88.459z"/>
			<path fill="#F18A21" d="M416.314,68.868h5.053l1.031,4.382h6.805v5.414h-6.057v12.449c0,2.526,1.09,3.79,3.273,3.79h2.782v5.413
				h-6.084c-4.537,0-6.805-2.432-6.805-7.295L416.314,68.868L416.314,68.868z"/>
			<path fill="#F18A21" d="M441.677,63.455v5.414h-6.83v-5.414H441.677z M441.677,73.25v27.065h-6.83V73.25H441.677z"/>
			<path fill="#F18A21" d="M445.902,73.25h7.217l6.574,18.921l6.83-18.921h7.219l-11.008,27.065h-6.496L445.902,73.25z"/>
			<path fill="#F18A21" d="M489.387,73.25c8.213,0,12.319,4.192,12.319,12.58c0,1.116-0.075,2.233-0.229,3.351H483.51
				c0,3.815,2.801,5.723,8.401,5.723c2.732,0,5.466-0.258,8.197-0.772v5.413c-2.389,0.516-5.293,0.772-8.713,0.772
				c-9.813,0-14.719-4.613-14.719-13.842C476.678,77.658,480.914,73.25,489.387,73.25z M483.51,84.438h11.547v-0.206
				c0-3.746-1.892-5.62-5.67-5.62C485.777,78.612,483.818,80.554,483.51,84.438z"/>
		</g>
		<g transform="matrix(0.4050561,0,0,0.4050561,513.72016,151.02668)">
			<g>
				<path fill="#FFFFFF" d="M-12.003-133.014v7.821h-8.46v-7.821H-12.003z"/>
				<path fill="#FFFFFF" d="M22.471-126.15c-2.768,0.636-5.639,0.957-8.619,0.957c-11.922,0-17.877-5.798-17.877-17.4
					c0-10.748,5.955-16.122,17.877-16.122c2.98,0,5.854,0.321,8.619,0.96v6.702c-2.768-0.639-5.427-0.955-7.98-0.955
					c-6.705,0-10.056,3.139-10.056,9.415c0,7.132,3.351,10.697,10.056,10.697c2.553,0,5.213-0.321,7.98-0.96V-126.15z"/>
				<path fill="#FFFFFF" d="M30.608-125.193v-45.651h8.46v16.409c2.64-2.852,6.013-4.279,10.121-4.279
					c7.937,0,11.905,4.13,11.905,12.387v21.134h-8.458v-21.134c0-3.703-1.842-5.555-5.526-5.555c-2.744,0-5.425,1.097-8.043,3.289
					v23.401H30.608z"/>
			</g>
		</g>
	</g>
	<g>
		<path fill="#FFFFFF" d="M75.358,63.389c-6.399,0-11.551,5.152-11.551,11.551v40.288c0,6.398,5.151,11.55,11.551,11.55h40.287
			c6.398,0,11.55-5.151,11.55-11.55V74.939c0-6.398-5.151-11.551-11.55-11.551L75.358,63.389L75.358,63.389z M76.54,67.212h36.325
			c5.821,0,10.507,4.686,10.507,10.507v36.325c0,5.82-4.686,10.507-10.507,10.507H76.54c-5.822,0-10.507-4.687-10.507-10.507V77.72
			C66.033,71.898,70.718,67.212,76.54,67.212z"/>
		<g>
			<path fill="#FFFFFF" d="M85.647,96.678h-3.663l8.174-19.256h3.837l8.35,19.256h-3.838l-2.194-5.251h-6.396l1.226-3.097h3.878
				l-3.03-7.231L85.647,96.678z"/>
			<path fill="#FFFFFF" d="M107.933,77.422v19.256h-3.568V77.422H107.933z"/>
			<path fill="#FFFFFF" d="M111.097,80.251h2.639l0.539,2.289h3.555v2.828h-3.164v6.504c0,1.318,0.57,1.979,1.71,1.979h1.454v2.828
				h-3.178c-2.37,0-3.555-1.27-3.555-3.811V80.251z"/>
		</g>
	</g>
	<g>
		<path fill="#FFFFFF" d="M148.923,126.816v-10.747c0-2.479,1.405-3.719,4.218-3.719c0.773,0,1.503,0.13,2.187,0.391v1.465
			c-0.644-0.261-1.376-0.391-2.196-0.391c-1.601,0-2.4,0.727-2.4,2.178v0.575h3.172v1.464h-3.172v8.785L148.923,126.816
			L148.923,126.816z"/>
		<path fill="#FFFFFF" d="M159.553,121.692c0-3.417,1.627-5.125,4.881-5.125c3.253,0,4.88,1.708,4.88,5.125
			c0,3.41-1.627,5.115-4.88,5.115C161.193,126.807,159.566,125.102,159.553,121.692z M164.434,125.352
			c2.05,0,3.074-1.232,3.074-3.699c0-2.415-1.024-3.622-3.074-3.622c-2.051,0-3.075,1.207-3.075,3.622
			C161.359,124.119,162.384,125.352,164.434,125.352z"/>
		<path fill="#FFFFFF" d="M175.933,126.816v-10.25h1.22l0.322,1.309c0.897-0.872,1.979-1.309,3.24-1.309v1.503
			c-1.223,0-2.216,0.434-2.977,1.299v7.447L175.933,126.816L175.933,126.816z"/>
		<path fill="#FFFFFF" d="M195.271,123.722c0-2.102,1.386-3.153,4.158-3.153c0.892,0,1.782,0.065,2.675,0.195v-0.966
			c0-1.178-0.921-1.768-2.764-1.768c-1.054,0-2.134,0.163-3.24,0.488v-1.464c1.105-0.326,2.187-0.488,3.24-0.488
			c3.047,0,4.568,1.062,4.568,3.183v7.066h-1.015l-0.625-1.015c-1.022,0.677-2.136,1.015-3.338,1.015
			C196.491,126.816,195.271,125.785,195.271,123.722z M199.429,122.033c-1.568,0-2.353,0.553-2.353,1.659
			c0,1.107,0.618,1.659,1.854,1.659c1.25,0,2.307-0.332,3.172-0.996v-2.128C201.212,122.099,200.321,122.033,199.429,122.033z"/>
		<path fill="#FFFFFF" d="M219.978,126.328v-1.563c1.204,0.39,2.421,0.585,3.65,0.585c1.634,0,2.45-0.488,2.45-1.464
			c0-0.911-0.569-1.367-1.708-1.367h-1.464c-2.212,0-3.319-1.009-3.319-3.025c0-1.953,1.422-2.93,4.267-2.93
			c1.224,0,2.437,0.163,3.641,0.488v1.562c-1.204-0.39-2.417-0.585-3.641-0.585c-1.705,0-2.558,0.488-2.558,1.465
			c0,0.91,0.537,1.365,1.61,1.365h1.464c2.343,0,3.515,1.01,3.515,3.026c0,1.952-1.42,2.928-4.257,2.928
			C222.398,126.816,221.181,126.654,219.978,126.328z"/>
		<path fill="#FFFFFF" d="M243.337,116.567v10.25h-1.239l-0.313-1.308c-1.243,0.872-2.492,1.308-3.748,1.308
			c-2.355,0-3.534-1.271-3.534-3.816v-6.434h1.807v6.462c0,1.523,0.755,2.284,2.265,2.284c1.035,0,2.021-0.433,2.958-1.298v-7.448
			H243.337z"/>
		<path fill="#FFFFFF" d="M250.346,126.328v-1.563c1.203,0.39,2.421,0.585,3.65,0.585c1.633,0,2.45-0.488,2.45-1.464
			c0-0.911-0.569-1.367-1.708-1.367h-1.464c-2.212,0-3.319-1.009-3.319-3.025c0-1.953,1.422-2.93,4.267-2.93
			c1.224,0,2.437,0.163,3.641,0.488v1.562c-1.204-0.39-2.417-0.585-3.641-0.585c-1.705,0-2.558,0.488-2.558,1.465
			c0,0.91,0.537,1.365,1.61,1.365h1.464c2.343,0,3.514,1.01,3.514,3.026c0,1.952-1.419,2.928-4.256,2.928
			C252.767,126.816,251.549,126.654,250.346,126.328z"/>
		<path fill="#FFFFFF" d="M264.871,114.908h1.132l0.391,1.658h2.771v1.464h-2.489v5.887c0,0.957,0.413,1.435,1.24,1.435h1.25v1.464
			h-1.718c-1.718,0-2.577-0.921-2.577-2.763V114.908z"/>
		<path fill="#FFFFFF" d="M275.15,123.722c0-2.102,1.386-3.153,4.158-3.153c0.892,0,1.782,0.065,2.675,0.195v-0.966
			c0-1.178-0.921-1.768-2.763-1.768c-1.055,0-2.135,0.163-3.241,0.488v-1.464c1.105-0.326,2.187-0.488,3.241-0.488
			c3.046,0,4.567,1.062,4.567,3.183v7.066h-1.015l-0.625-1.015c-1.022,0.677-2.135,1.015-3.338,1.015
			C276.37,126.816,275.15,125.785,275.15,123.722z M279.308,122.033c-1.568,0-2.353,0.553-2.353,1.659
			c0,1.107,0.618,1.659,1.854,1.659c1.25,0,2.307-0.332,3.172-0.996v-2.128C281.091,122.099,280.2,122.033,279.308,122.033z"/>
		<path fill="#FFFFFF" d="M292.896,112.857v1.708h-1.807v-1.708H292.896z M292.896,116.567v10.25h-1.807v-10.25H292.896z"/>
		<path fill="#FFFFFF" d="M300.198,126.816v-10.25h1.222l0.321,1.309c1.047-0.872,2.199-1.309,3.455-1.309
			c2.559,0,3.835,1.272,3.835,3.817v6.433h-1.805v-6.462c0-1.522-0.758-2.284-2.275-2.284c-1.033,0-2.018,0.434-2.946,1.299v7.447
			H300.198z"/>
		<path fill="#FFFFFF" d="M315.65,123.722c0-2.102,1.387-3.153,4.158-3.153c0.893,0,1.783,0.065,2.676,0.195v-0.966
			c0-1.178-0.922-1.768-2.764-1.768c-1.056,0-2.135,0.163-3.24,0.488v-1.464c1.105-0.326,2.186-0.488,3.24-0.488
			c3.045,0,4.567,1.062,4.567,3.183v7.066h-1.016l-0.625-1.015c-1.021,0.677-2.133,1.015-3.338,1.015
			C316.871,126.816,315.65,125.785,315.65,123.722z M319.809,122.033c-1.568,0-2.353,0.553-2.353,1.659
			c0,1.107,0.617,1.659,1.854,1.659c1.25,0,2.307-0.332,3.174-0.996v-2.128C321.593,122.099,320.701,122.033,319.809,122.033z"/>
		<path fill="#FFFFFF" d="M331.396,112.857h1.807v4.198c0.773-0.326,1.604-0.488,2.488-0.488c3.24,0,4.861,1.641,4.861,4.92
			c0,3.554-1.701,5.33-5.105,5.33c-1.471,0-2.819-0.14-4.051-0.42V112.857z M333.203,125.03c0.593,0.188,1.312,0.283,2.156,0.283
			c2.277,0,3.416-1.298,3.416-3.895c0-2.193-1.031-3.29-3.094-3.29c-0.938,0-1.764,0.176-2.479,0.526L333.203,125.03L333.203,125.03
			z"/>
		<path fill="#FFFFFF" d="M349.074,112.857v13.959h-1.807v-13.959H349.074z"/>
		<path fill="#FFFFFF" d="M360.505,116.567c2.916,0,4.375,1.441,4.375,4.324c0,0.41-0.029,0.85-0.089,1.318h-7.194
			c0,2.096,1.223,3.143,3.67,3.143c1.166,0,2.199-0.13,3.104-0.39v1.464c-0.905,0.261-2.006,0.391-3.301,0.391
			c-3.52,0-5.279-1.747-5.279-5.241C355.791,118.236,357.361,116.567,360.505,116.567z M357.596,120.706h5.545
			c-0.039-1.796-0.918-2.694-2.637-2.694C358.684,118.012,357.714,118.91,357.596,120.706z"/>
		<path fill="#FFFFFF" d="M389.232,126.202c-1.242,0.409-2.775,0.614-4.596,0.614c-3.054,0-4.578-1.775-4.578-5.33
			c0-3.279,1.619-4.92,4.859-4.92c0.887,0,1.723,0.163,2.51,0.488v-4.198h1.805V126.202z M387.428,118.656
			c-0.729-0.351-1.563-0.526-2.5-0.526c-2.063,0-3.094,1.097-3.094,3.29c0,2.597,1.03,3.895,3.094,3.895
			c0.938,0,1.771-0.127,2.5-0.38V118.656z"/>
		<path fill="#FFFFFF" d="M398.341,112.857v1.708h-1.806v-1.708H398.341z M398.341,116.567v10.25h-1.806v-10.25H398.341z"/>
		<path fill="#FFFFFF" d="M414.302,126.816c0,2.474-1.57,3.709-4.713,3.709c-1.265,0-2.384-0.163-3.359-0.487v-1.465
			c0.996,0.326,2.121,0.488,3.379,0.488c1.926,0,2.889-0.749,2.889-2.245v-0.487c-0.768,0.325-1.594,0.487-2.479,0.487
			c-3.24,0-4.859-1.728-4.859-5.183c0-3.377,1.707-5.066,5.123-5.066c1.387,0,2.728,0.141,4.021,0.42L414.302,126.816
			L414.302,126.816z M412.496,118.305c-0.618-0.156-1.383-0.234-2.295-0.234c-2.18,0-3.27,1.182-3.27,3.543
			c0,2.428,1.031,3.642,3.094,3.642c0.938,0,1.762-0.175,2.471-0.527V118.305z"/>
		<path fill="#FFFFFF" d="M423.408,112.857v1.708h-1.805v-1.708H423.408z M423.408,116.567v10.25h-1.805v-10.25H423.408z"/>
		<path fill="#FFFFFF" d="M430.712,114.908h1.133l0.391,1.658h2.771v1.464h-2.488v5.887c0,0.957,0.412,1.435,1.238,1.435h1.25v1.464
			h-1.72c-1.717,0-2.575-0.921-2.575-2.763V114.908z"/>
		<path fill="#FFFFFF" d="M440.99,123.722c0-2.102,1.388-3.153,4.158-3.153c0.893,0,1.783,0.065,2.676,0.195v-0.966
			c0-1.178-0.922-1.768-2.764-1.768c-1.055,0-2.135,0.163-3.24,0.488v-1.464c1.105-0.326,2.187-0.488,3.24-0.488
			c3.045,0,4.568,1.062,4.568,3.183v7.066h-1.017l-0.625-1.015c-1.021,0.677-2.133,1.015-3.338,1.015
			C442.212,126.816,440.99,125.785,440.99,123.722z M445.148,122.033c-1.568,0-2.352,0.553-2.352,1.659
			c0,1.107,0.616,1.659,1.854,1.659c1.25,0,2.307-0.332,3.174-0.996v-2.128C446.932,122.099,446.041,122.033,445.148,122.033z"/>
		<path fill="#FFFFFF" d="M458.639,112.857v13.959h-1.808v-13.959H458.639z"/>
		<path fill="#FFFFFF" d="M473.779,116.567h1.826l1.814,8.034l2.666-8.034h1.629l2.852,8.034l1.639-8.034h1.914l-2.674,10.25h-1.649
			l-2.938-7.663l-2.793,7.663h-1.688L473.779,116.567z"/>
		<path fill="#FFFFFF" d="M493.615,121.692c0-3.417,1.625-5.125,4.879-5.125s4.881,1.708,4.881,5.125
			c0,3.41-1.627,5.115-4.881,5.115C495.255,126.807,493.628,125.102,493.615,121.692z M498.494,125.352
			c2.052,0,3.076-1.232,3.076-3.699c0-2.415-1.024-3.622-3.076-3.622c-2.049,0-3.073,1.207-3.073,3.622
			C495.421,124.119,496.445,125.352,498.494,125.352z"/>
		<path fill="#FFFFFF" d="M509.994,126.816v-10.25h1.222l0.321,1.309c0.898-0.872,1.979-1.309,3.24-1.309v1.503
			c-1.223,0-2.215,0.434-2.977,1.299v7.447L509.994,126.816L509.994,126.816z"/>
		<path fill="#FFFFFF" d="M522.664,112.857v13.959h-1.805v-13.959H522.664z"/>
		<path fill="#FFFFFF" d="M538.557,126.202c-1.242,0.409-2.775,0.614-4.599,0.614c-3.053,0-4.577-1.775-4.577-5.33
			c0-3.279,1.62-4.92,4.86-4.92c0.886,0,1.722,0.163,2.508,0.488v-4.198h1.808V126.202z M536.75,118.656
			c-0.729-0.351-1.561-0.526-2.497-0.526c-2.063,0-3.095,1.097-3.095,3.29c0,2.597,1.031,3.895,3.095,3.895
			c0.938,0,1.77-0.127,2.497-0.38V118.656z"/>
	</g>
</g>
</svg>
